<svg width="135" height="129" viewBox="0 0 135 129" fill="none" xmlns="http://www.w3.org/2000/svg">
<rect x="19.5" y="99" width="26" height="29" fill="#AFB9C3"/>
<rect x="79.5" y="112" width="32" height="16" rx="8" fill="#AFB9C3"/>
<path d="M0 128H135" stroke="#304760"/>
<path d="M66 128C50.4 95.2 60.4999 46 66.9999 24.5M59.1649 62.235C69.1649 61.235 89.1206 53.9 86.7206 35.5L59.3615 60.6622M57.7372 84.3689C47.2372 83.5356 27.1415 76.2 30.7415 47L57.7413 83.5" stroke="#304760"/>
<path fill-rule="evenodd" clip-rule="evenodd" d="M92.4407 14.5876L55.1377 0.148438L47.9181 18.7999L57.2439 22.4097L53.6341 31.7354L66.5696 26.0195L85.2211 33.2391L92.4407 14.5876Z" fill="#6DA8D3"/>
<path d="M57.6347 7.54883L80.9491 16.5733" stroke="#304760"/>
<path d="M56.1908 11.2793L79.5051 20.3038" stroke="#304760"/>
<path d="M54.7469 15.0093L68.7355 20.424" stroke="#304760"/>
</svg>
