<svg width="135" height="76" viewBox="0 0 135 76" fill="none" xmlns="http://www.w3.org/2000/svg">
<rect x="44.5" y="13.5" width="79" height="59" fill="white"/>
<rect x="44.5" y="13.5" width="79" height="59" stroke="#4E7BA2"/>
<rect x="44" y="13" width="80" height="16" fill="#4E7BA2"/>
<path fill-rule="evenodd" clip-rule="evenodd" d="M116 65H100V61L116 61V65Z" fill="#F7796E"/>
<path fill-rule="evenodd" clip-rule="evenodd" d="M58 39H50V35H58V39Z" fill="#F7796E"/>
<path d="M62 37H72" stroke="#304760"/>
<path d="M76 37H86" stroke="#304760"/>
<path d="M50 47H66" stroke="#304760"/>
<path d="M72 47H76" stroke="#304760"/>
<path d="M82 47H96" stroke="#304760"/>
<path d="M50 53H66" stroke="#304760"/>
<path d="M72 53H96" stroke="#304760"/>
<circle cx="52" cy="21" r="4" fill="#C1E8FA"/>
<path d="M60 19H86" stroke="#C1E8FA"/>
<path d="M60 23H86" stroke="#C1E8FA"/>
<line x1="127" y1="72.5" x2="135" y2="72.5" stroke="#304760"/>
<line y1="72.5" x2="7" y2="72.5" stroke="#304760"/>
<path d="M9.58936 71.46L10.4105 73.5398" stroke="#304760"/>
<path d="M23.3511 59.582L21.876 72.5001M21.876 72.5001L18.876 72.0001M21.876 72.5001L24.376 74.0002M21.876 72.5001L18.876 75.0001" stroke="#304760"/>
<path d="M30.4105 61.1702L34.876 72.5M34.876 72.5L36.376 75.0001M34.876 72.5H39.876M34.876 72.5L32.376 74.5001" stroke="#304760"/>
<path d="M23.4688 41.1659C8.08895 40.6828 14.5386 60.9723 27.4378 62.9046C40.3371 64.837 55.717 36.8181 48.7712 31.9873C43.4422 28.2809 40.4495 35.9491 32.3991 39.5016C29.9567 40.5794 27.0488 41.2783 23.4688 41.1659Z" fill="#AFB9C3"/>
<path d="M32.5 39.7993C21.8986 45.3609 15.4474 55.0721 14.3021 57.7993C13.6968 56.7436 12.8494 53.7456 14.3021 50.1994" stroke="#304760"/>
<path d="M47.5 41.0001L49 38.5001L51.4999 41.0001L47.5 41.0001Z" fill="#F6BE00"/>
<ellipse cx="49.7622" cy="37" rx="1" ry="2" fill="white"/>
<ellipse cx="50.2622" cy="37" rx="0.5" ry="1" fill="black"/>
<path d="M44.5 41L44.5 48.2457C50.605 49.5339 59.2476 49.6318 48.1386 44.7872" stroke="#304760"/>
<path d="M49.5 36.5C49.5 38.9853 47.4853 41 45 41C42.5147 41 40.5 38.9853 40.5 36.5C40.5 34.0147 42.5147 32 45 32C47.4853 32 49.5 34.0147 49.5 36.5Z" fill="#AFB9C3" stroke="#304760"/>
<circle cx="45" cy="36.5" r="3.5" fill="white"/>
<circle cx="45.5" cy="37" r="2" fill="black"/>
</svg>
