<svg width="45" height="45" viewBox="0 0 45 45" fill="none" xmlns="http://www.w3.org/2000/svg">
<rect x="1.25" y="1.25" width="42.5" height="42.5" rx="8.75" fill="#8CD0F2" stroke="#304760" stroke-width="2.5"/>
<path d="M2.5 10C2.5 5.85786 5.85786 2.5 10 2.5H35C39.1421 2.5 42.5 5.85786 42.5 10V25H2.5V10Z" fill="white"/>
<path d="M20 25H10V35L20 25Z" fill="#304760"/>
<rect width="20" height="20" transform="translate(25 25)" fill="black"/>
<path d="M35.0135 27.5L33.8496 29.9508C33.7417 30.1634 33.5552 30.133 33.38 30.0209L32.2745 29.3597L32.989 33.009C33.1058 33.4762 32.7328 33.6888 32.4699 33.3641L30.9825 31.6352L30.5623 32.53C30.4544 32.7637 30.3376 32.8665 29.9174 32.7637L28.412 32.4296L28.9984 34.4037C29.0861 34.7004 29.0771 34.8406 28.9108 34.9738L28.3333 35.3406L31.4543 37.9969C31.7195 38.2306 31.688 38.4642 31.5712 38.81L31.2296 39.7141L33.8788 39.1861C34.4562 39.0623 34.7012 39.0529 34.7012 39.387L34.5843 42.402H35.4426L35.3258 39.3777C35.3348 39.0833 35.5797 39.0833 35.9325 39.1744L38.7883 39.7118L38.5052 38.8076C38.3884 38.4315 38.2805 38.3287 38.5928 37.9946L41.6667 35.3009L41.1386 35.0275C40.8645 34.9037 40.9813 34.6911 41.0398 34.4364V34.3944L41.5386 32.4436L40.0534 32.7683L40.0465 32.7696C39.7938 32.8181 39.6028 32.8547 39.4759 32.5838L39.0939 31.6796L37.6559 33.2776C37.2627 33.7262 36.9009 33.5323 37.038 32.8711L37.6941 29.5045L36.6852 30.0232C36.4515 30.1447 36.3324 30.1657 36.1864 29.911L35.0135 27.5Z" fill="white"/>
<rect x="10" y="17.5" width="15" height="2.5" fill="#304760"/>
<rect x="10" y="12.5" width="25" height="2.5" fill="#304760"/>
<rect x="10" y="7.5" width="25" height="2.5" fill="#304760"/>
</svg>
